<!-- Created with Inkscape (http://www.inkscape.org/) -->

<svg
   xmlns:dc="http://purl.org/dc/elements/1.1/"
   xmlns:cc="http://creativecommons.org/ns#"
   xmlns:rdf="http://www.w3.org/1999/02/22-rdf-syntax-ns#"
   xmlns:svg="http://www.w3.org/2000/svg"
   xmlns="http://www.w3.org/2000/svg"
   xmlns:sodipodi="http://sodipodi.sourceforge.net/DTD/sodipodi-0.dtd"
   xmlns:inkscape="http://www.inkscape.org/namespaces/inkscape"
   width="30"
   height="30"
   id="marker-direction"
   version="1.1"
   inkscape:version="0.48.4 r9939"
   sodipodi:docname="circle.svg">
  <defs
     id="defs4" />
  <sodipodi:namedview
     id="base"
     pagecolor="#ffffff"
     bordercolor="#666666"
     borderopacity="1.0"
     inkscape:pageopacity="0.0"
     inkscape:pageshadow="2"
     inkscape:zoom="1"
     inkscape:cx="15"
     inkscape:cy="15"
     inkscape:document-units="px"
     inkscape:current-layer="layer1"
     showgrid="false"
     inkscape:window-width="1121"
     inkscape:window-height="792"
     inkscape:window-x="19"
     inkscape:window-y="29"
     inkscape:window-maximized="0" />
  <metadata
     id="metadata7">
    <rdf:RDF>
      <cc:Work
         rdf:about="">
        <dc:format>image/svg+xml</dc:format>
        <dc:type
           rdf:resource="http://purl.org/dc/dcmitype/StillImage" />
        <dc:title></dc:title>
      </cc:Work>
    </rdf:RDF>
  </metadata>
  <g
     inkscape:label="Layer 1"
     inkscape:groupmode="layer"
     id="layer1"
     transform="translate(0,-1022.3622)">
    <path
       style="fill:#1faee3;fill-opacity:1;stroke:none"
       d="M 14.96875 0 L 11.90625 8.71875 C 12.838499 8.2591467 13.890335 8 15 8 C 16.109665 8 17.161501 8.2591467 18.09375 8.71875 L 14.96875 0 z "
       transform="translate(0,1022.3622)"
       id="path3778-4" />
    <path
       style="fill:#1faee3;fill-opacity:1;stroke:none"
       d="m 15,10 c -2.761424,0 -5,2.238576 -5,5 0,2.761424 2.238576,5 5,5 2.761424,0 5,-2.238576 5,-5 0,-2.761424 -2.238576,-5 -5,-5 z"
       transform="translate(0,1022.3622)"
       id="path3778"
       inkscape:connector-curvature="0"
       sodipodi:nodetypes="sssss" />
    <path
       sodipodi:type="arc"
       style="fill:none;stroke:#3a88be;stroke-width:0.74747479;stroke-miterlimit:4;stroke-opacity:1;stroke-dasharray:none"
       id="path3782"
       sodipodi:cx="7.6262627"
       sodipodi:cy="10.959596"
       sodipodi:rx="3.7373738"
       sodipodi:ry="3.7373738"
       d="m 11.363636,10.959596 a 3.7373738,3.7373738 0 1 1 -7.4747472,0 3.7373738,3.7373738 0 1 1 7.4747472,0 z"
       transform="matrix(1.2162162,0,0,1.2162162,5.7248158,1024.033)" />
    <path
       style="font-size:medium;font-style:normal;font-variant:normal;font-weight:normal;font-stretch:normal;text-indent:0;text-align:start;text-decoration:none;line-height:normal;letter-spacing:normal;word-spacing:normal;text-transform:none;direction:ltr;block-progression:tb;writing-mode:lr-tb;text-anchor:start;baseline-shift:baseline;color:#000000;fill:#a2ddf3;fill-opacity:1;stroke:none;stroke-width:0.74730861;marker:none;visibility:visible;display:inline;overflow:visible;enable-background:accumulate;font-family:Sans;-inkscape-font-specification:Sans"
       d="m 14.984375,1033.2576 c -2.331199,0 -4.039457,1.8032 -4.039457,4.0625 0.31654,-1.8292 2.148528,-3.0629 4.039457,-3.0629 1.890929,0 3.77942,1.2337 4.09596,3.0629 0,-2.3097 -1.764761,-4.0625 -4.09596,-4.0625 z"
       id="path3782-3"
       inkscape:connector-curvature="0"
       sodipodi:nodetypes="scscs" />
  </g>
</svg>
